<svg id="Layer_1" data-name="Layer 1" xmlns="http://www.w3.org/2000/svg" width="15" height="38" viewBox="0 0 15 38.08">
  <title>logotype</title>
  <g>
    <path d="M180.06,34.85V48.39s-.21.39-.34.61a17,17,0,0,1-1.28,1.86c-1.24,1.55-2.5,2.45-3.57,2.45s-2.33-.9-3.57-2.45A17,17,0,0,1,170,49c-.13-.22-.34-.61-.34-.61V34.85Zm-12.69-1.15v15a1.15,1.15,0,0,0,.12.52c.1.21.29.55.55,1a19.22,19.22,0,0,0,1.46,2.11c1.64,2.05,3.41,3.32,5.37,3.32s3.73-1.27,5.37-3.32a19.22,19.22,0,0,0,1.46-2.11c.26-.43.44-.77.55-1a1.15,1.15,0,0,0,.12-.52v-15a1.15,1.15,0,0,0-1.15-1.15H168.52A1.15,1.15,0,0,0,167.37,33.69Z" transform="translate(-167.37 -27.92)" style="fill: #fff"/>
    <path d="M176,41.77h4.62a1.15,1.15,0,0,1,0,2.31H176v9.81a1.15,1.15,0,1,1-2.31,0V44.08H169.1a1.15,1.15,0,0,1,0-2.31h4.62v-7.5a1.15,1.15,0,0,1,2.31,0v7.5Z" transform="translate(-167.37 -27.92)" style="fill: #fff"/>
    <path d="M176,29.08a1.15,1.15,0,1,0-2.31,0v1.15a1.15,1.15,0,0,0,2.31,0Z" transform="translate(-167.37 -27.92)" style="fill: #fff"/>
    <path d="M176,57.92a1.15,1.15,0,0,0-2.31,0v6.92a1.15,1.15,0,0,0,2.31,0Z" transform="translate(-167.37 -27.92)" style="fill: #fff"/>
  </g>
</svg>
